<svg id="Capa_1" enable-background="new 0 0 512 512" height="512" viewBox="0 0 512 512" width="512" xmlns="http://www.w3.org/2000/svg"><g><circle cx="242.253" cy="83.665" fill="#5ec581" r="42.472"/><path d="m225.062 49.737c-.708-22.437-18.746-40.937-41.161-42.169-14.028-.771-26.711 5.088-35.208 14.726-4.931 5.593-12.479 8.03-19.676 6.082-26.311-7.124-54.977 12.233-54.977 42.192 0 25.283 20.914 43.922 44.1 43.686 8.272-.084 15.734 5.318 18.238 13.202 5.979 18.82 24.404 32.134 45.647 30.222 20.997-1.891 37.839-18.979 39.463-39.998.647-8.377-1.076-16.299-4.566-23.173-3.204-6.311-2.647-13.77 1.196-19.713 4.643-7.18 7.235-15.806 6.944-25.057z" fill="#7fd29b"/><path d="m170.947 113.629c61.67 0 149.892-66.976 213.148-66.976 37.723 0 58.756-9.288 76.861-16.785 17.625-7.299 37.009 5.643 37.009 24.72v367.239c0 45.66-37.014 82.674-82.674 82.674h-318.583c-45.66 0-82.674-37.014-82.674-82.674v-262.796l99.288-45.402z" fill="#8ce0cd"/><path d="m81.799 113.629-67.764 45.402v262.795c0 45.66 37.014 82.674 82.674 82.674h123.744c-149.645-81.203-152.197-212.785-138.654-390.871z" fill="#7fd29b"/><path d="m295.989 470.017c-63.236 0-119.204-31.171-145.339-80.148-55.847-10.19-95.455-50.476-95.455-98.568 0-53.847 51.618-101.041 122.653-101.041 17.075 0 34.07 2.924 49.583 8.496 21.256-8.611 44.806-13.139 68.569-13.139 90.171 0 160.805 62.463 160.805 142.204 0 83.062-74.114 142.196-160.816 142.196z" fill="#5ec581"/><path d="m296 221.971c-21.648 0-42.214 4.538-60.168 12.739-5.012 2.289-10.756 2.288-15.834.151-12.465-5.247-26.836-8.246-42.15-8.246-47.661 0-86.299 28.961-86.299 64.686 0 32.258 31.508 58.984 72.713 63.868 6.835.81 12.699 5.265 15.507 11.55 18.089 40.478 63.905 66.945 116.22 66.945 67.467 0 124.461-44.036 124.461-105.842 0-61.571-56.777-105.851-124.45-105.851z" fill="#7fd29b"/><path d="m239.806 381.861c-42.533-27.247-42.566-80.82 0-108.089 32.12-20.576 80.198-20.614 112.377 0 42.534 27.248 42.566 80.821.001 108.089-32.12 20.577-80.2 20.615-112.378 0z" fill="#8ce0cd"/><ellipse cx="295.994" cy="327.817" fill="#5ec581" rx="51.729" ry="33.139"/><path d="m114.698 66.855c-6.698-1.756-11.978-7.001-13.836-13.671-6.154-22.088-26.41-38.296-50.46-38.296-6.005 0-11.772 1.012-17.142 2.874-11.571 4.012-19.226 15.053-19.226 27.299v113.969c15.639 9.77 35.491 6.855 47.797-5.664 4.175-4.247 10.848-5.012 15.87-1.81 8.123 5.18 17.951 7.921 28.458 7.186 22.456-1.573 42.339-21.999 43.355-44.487 1.019-22.558-13.995-41.942-34.816-47.4z" fill="#5ec581"/><g><g><ellipse cx="289.521" cy="151.691" fill="#fff" rx="30.478" ry="24.271"/><ellipse cx="454.722" cy="151.691" fill="#fff" rx="30.478" ry="24.271"/><ellipse cx="372.122" cy="133.043" fill="#565e75" rx="16.178" ry="18.104"/></g></g><path d="m235.76 388.177c16.743 10.725 38.13 16.631 60.229 16.631h.03c22.094-.005 43.477-5.912 60.21-16.631 47.176-30.224 47.201-90.482-.001-120.72-16.742-10.725-38.13-16.631-60.229-16.631h-.029c-22.094.005-43.477 5.912-60.21 16.631-47.179 30.224-47.198 90.483 0 120.72zm8.091-108.09c29.727-19.042 74.56-19.043 104.286 0 37.92 24.291 37.983 71.127 0 95.458-29.726 19.044-74.56 19.044-104.286 0-37.918-24.29-37.981-71.126 0-95.458zm52.144 88.369c33.212 0 59.229-17.851 59.229-40.639s-26.017-40.639-59.229-40.639-59.229 17.851-59.229 40.639c0 22.787 26.016 40.639 59.229 40.639zm0-66.278c23.975 0 44.229 11.741 44.229 25.639s-20.254 25.639-44.229 25.639-44.229-11.741-44.229-25.639 20.254-25.639 44.229-25.639zm201.971-201.548c-4.142 0-7.5 3.358-7.5 7.5v313.695c0 41.451-33.723 75.174-75.174 75.174h-295.961c-4.142 0-7.5 3.358-7.5 7.5s3.358 7.5 7.5 7.5h295.961c49.722 0 90.174-40.452 90.174-90.174v-313.695c0-4.142-3.358-7.5-7.5-7.5zm-102.166 32.412c0-14.118-10.622-25.604-23.678-25.604s-23.678 11.486-23.678 25.604 10.622 25.604 23.678 25.604 23.678-11.485 23.678-25.604zm-32.357 0c0-5.847 3.893-10.604 8.678-10.604s8.678 4.757 8.678 10.604-3.893 10.604-8.678 10.604-8.678-4.756-8.678-10.604zm93.683-10.639v-11.822c0-4.142-3.358-7.5-7.5-7.5s-7.5 3.358-7.5 7.5v11.822c0 4.142 3.358 7.5 7.5 7.5 4.143 0 7.5-3.358 7.5-7.5zm-344.798 117.157c-36.873 27.639-36.851 71.735-4.793 99.601 14.462 12.572 34.295 20.902 55.845 23.456 4.131.49 7.788 3.234 9.543 7.162 19.378 43.364 67.685 71.384 123.067 71.384 70.347 0 131.961-46.234 131.961-113.342 0-67.633-62.323-113.35-131.95-113.35-22.185 0-44.068 4.64-63.284 13.417-3.034 1.385-6.609 1.407-9.809.06-34.574-14.552-79.864-11.412-110.58 11.612zm126.62 1.972c17.273-7.89 37.002-12.061 57.052-12.061 31.523 0 60.935 9.983 82.818 28.112 45.702 37.859 45.482 102.924-.074 140.553-21.881 18.073-51.27 28.026-82.754 28.026-49.473 0-92.404-24.534-109.372-62.504-3.898-8.723-12.125-14.831-21.472-15.938-37.681-4.466-66.095-28.721-66.095-56.42 0-44.089 66.094-71.392 118.039-49.527 7.054 2.97 15.02 2.882 21.858-.241zm219.139-218.594c-23.497 9.755-41.429 16.214-73.991 16.214-28.747 0-61.922 12.96-94.89 27.365-8.778-24.317-34.504-37.543-59.19-31.294-6.463-19.464-24.425-33.975-45.702-35.144-15.783-.867-30.814 5.422-41.245 17.255-3.105 3.523-7.74 4.98-12.09 3.802-12.678-3.432-26.04-1.763-37.589 4.5-11.035-11.354-26.423-18.247-42.988-18.247-6.713 0-13.307 1.106-19.599 3.288-14.516 5.032-24.269 18.85-24.269 34.384v376.764c0 44.841 32.849 82.344 76.191 89.096.391.061.78.09 1.164.09 3.633 0 6.825-2.645 7.401-6.347.638-4.093-2.163-7.927-6.256-8.565-36.036-5.614-63.5-36.821-63.5-74.274v-251.333c16.205 4.661 33.863.121 45.645-11.867 1.682-1.711 4.472-2.031 6.488-.744 9.851 6.282 21.271 9.168 33.015 8.343 23.9-1.674 45.229-21.65 49.559-45.095h14.706c63.565 0 152.292-66.976 213.148-66.976 35.412 0 55.975-7.493 79.73-17.356 12.713-5.262 26.64 4.036 26.64 17.79v17.516c0 4.142 3.358 7.5 7.5 7.5s7.5-3.358 7.5-7.5v-17.516c.001-24.409-24.832-40.986-47.378-31.649zm-316.066 90.978c-.841 18.595-17.844 36.046-36.387 37.345-8.516.591-16.782-1.488-23.901-6.028-7.985-5.092-18.605-3.883-25.25 2.876-9.145 9.305-23.292 11.751-34.948 6.453v-109.501c0-9.149 5.7-17.272 14.183-20.213 24.504-8.496 51.045 5.668 57.92 30.349 2.575 9.243 9.916 16.49 19.159 18.913 17.766 4.657 30.057 21.398 29.224 39.806zm69.801-43.196c-5.316 8.221-5.924 18.636-1.586 27.181.149.293.283.599.424.898-32.183 10.148-43.4 6.572-53.952 7.329-2.481-21.948-18.307-40.813-40.108-46.528-4.103-1.075-7.364-4.305-8.514-8.429-1.319-4.736-3.202-9.208-5.554-13.356 7.697-3.591 16.327-4.42 24.526-2.201 9.904 2.681 20.351-.522 27.262-8.361 7.374-8.365 18.008-12.814 29.17-12.197 18.523 1.018 33.491 16.355 34.076 34.917.233 7.401-1.753 14.576-5.744 20.747zm13.078 23.172c-.405-.943-.828-1.875-1.288-2.781-1.959-3.858-1.657-8.435.806-12.245 5.553-8.588 8.36-18.535 8.147-28.799 17.714-5.127 36.896 4.382 42.871 22.53-16.424 7.298-33.908 15.13-50.536 21.295zm-139.876 120.982c-69.556 59.165-37.715 161.365 60.749 181.686 29.621 52.24 89.04 80.956 150.217 80.956 90.174 0 168.315-61.841 168.315-149.696 0-83.946-73.928-149.705-168.305-149.705-23.619 0-47.319 4.364-68.737 12.64-46.592-15.681-103.716-8.649-142.239 24.119zm145.223-9.168c20.332-8.237 43.069-12.59 65.753-12.59 85.965 0 153.305 59.169 153.305 134.705 0 79.476-71.509 134.696-153.315 134.696-56.956 0-112.482-27.005-138.722-76.179-1.078-2.02-3.019-3.436-5.27-3.848-88.069-16.068-118.405-104.177-57.255-156.19 34.975-29.75 87.948-35.645 130.153-20.486 1.736.623 3.641.585 5.351-.108zm71.87-83.303v-11.822c0-4.142-3.358-7.5-7.5-7.5s-7.5 3.358-7.5 7.5v11.822c0 4.142 3.358 7.5 7.5 7.5s7.5-3.358 7.5-7.5z"/></g></svg>