<svg id="Capa_1" enable-background="new 0 0 512.007 512.007" height="512" viewBox="0 0 512.007 512.007" width="512" xmlns="http://www.w3.org/2000/svg"><g><path d="m410.33 196.99c8.216-3.46 37.032-2.142 59.035 1.272 11.128 1.727 19.031-10.485 12.978-19.982-12.24-19.206-34.913-40.429-63.87-45.807z" fill="#f3e872"/><path d="m199.07 400.43s-80.027 55.404-123.176 74.693c-9.784 4.374-21.237 2.448-29.138-4.794l-15.335-14.058c-6.827-6.258-4.198-17.595 4.701-20.16 41.592-11.993 113.398-42.998 130.82-55.875z" fill="#565e75"/><path d="m166.942 380.235c-9.232 6.823-33.733 18.736-60.917 30.214 4.49 14.447 12.757 26.479 24.425 34.638 35.257-21.56 68.62-44.657 68.62-44.657z" fill="#404656"/><path d="m320.914 466.581c-12.077-32.455-15.004-71.472-13.185-83.288 1.531-9.948 10.84-16.769 20.782-15.239 9.934 1.529 16.751 10.81 15.245 20.741-.762 6.061 1.267 38.077 11.314 65.075 3.51 9.432-1.291 19.923-10.723 23.433-9.433 3.512-19.924-1.291-23.433-10.722z" fill="#f8debb"/><path d="m254.021 492.628c-12.076-32.451-15.003-71.47-13.185-83.287 1.529-9.947 10.836-16.769 20.781-15.24 9.933 1.528 16.751 10.808 15.247 20.739-.763 6.059 1.266 38.079 11.313 65.078 3.51 9.432-1.291 19.923-10.722 23.433-9.452 3.517-19.931-1.31-23.434-10.723z" fill="#f8debb"/><path d="m328.511 368.054c-9.943-1.53-19.251 5.291-20.782 15.239-1.427 9.271.07 35.292 6.615 61.749 11.765-4.426 23.114-9.674 33.78-15.661-4.053-19.186-4.905-36.318-4.368-40.584 1.506-9.933-5.312-19.214-15.245-20.743z" fill="#f6c5a3"/><path d="m276.863 414.839c1.504-9.931-5.313-19.211-15.247-20.739-9.945-1.529-19.252 5.292-20.781 15.24-1.24 8.058-.27 28.766 4.3 51.413 11.994-.991 24.085-2.903 36.024-5.668-3.992-19.049-4.83-36.006-4.296-40.246z" fill="#f6c5a3"/><path d="m475.227 80.247c0-40.177-36.505-72.747-81.537-72.747-37.234 0-68.624 22.271-78.382 52.694-1.208 3.766-4.007 6.818-7.723 8.17-51.598 18.775-72.965 72.263-49.868 115.077 4.575 8.481 1.446 19.062-7.137 23.442-30.902 15.768-56.677 43.147-74.607 74.825-31.016 54.798-43.077 128.688 8.832 144.303 75.882 22.826 225.932-24.939 225.932-144.701 0-15.795-4.761-30.626-13.106-43.473-5.134-7.904-3.062-18.335 4.711-23.667 22.542-15.463 37.088-39.664 37.199-66.866.017-4.146 1.982-8.011 5.346-10.436 18.505-13.334 30.34-33.744 30.34-56.621z" fill="#e06e7e"/><path d="m357.572 387.076c-114.7 19.444-146.09-113.581-111.475-177.794-28.912 16.06-53.07 42.295-70.125 72.427-31.016 54.798-43.077 128.688 8.832 144.303 46.906 14.11 122.141 1.233 172.768-38.936z" fill="#d7495d"/><path d="m299.511 319.782c-13.134 71.174-108.331 111.278-141.753 101.024-26.017-7.982-29.722-50.915-4.047-91.98 2.353-3.764 6.326-6.191 10.744-6.619 41.642-4.029 73.77-22.91 98.57-51.808 3.561-4.15 9.249-5.865 14.495-4.32 24.736 7.283 26.263 30.557 21.991 53.703z" fill="#565e75"/><g><ellipse cx="358.121" cy="165.723" fill="#eda1ab" rx="32.936" ry="26.229"/></g><path d="m354.14 137.182c0 4.142 3.358 7.5 7.5 7.5s7.5-3.358 7.5-7.5c0-4.509 3.668-8.177 8.177-8.177s8.177 3.669 8.177 8.177c0 4.142 3.358 7.5 7.5 7.5s7.5-3.358 7.5-7.5c0-12.78-10.397-23.177-23.177-23.177-12.78-.001-23.177 10.397-23.177 23.177zm134.528 37.068c-8.822-13.844-21.095-26.199-34.567-35.045 18.264-15.176 28.626-36.354 28.626-58.958 0-9.103-1.678-18.037-4.987-26.553-1.5-3.86-5.844-5.772-9.707-4.274-3.861 1.5-5.775 5.846-4.274 9.707 9.726 25.031 1.473 53.837-23.258 71.659-5.271 3.799-8.434 9.963-8.461 16.489-.098 23.854-12.469 45.983-33.942 60.712-11.172 7.664-14.141 22.571-6.757 33.937 7.782 11.981 11.895 25.601 11.895 39.388 0 51.738-29.61 84.612-54.451 103.08-43.991 32.706-101.411 43.36-142.117 38.424 46.557-15.996 91.307-53.375 100.22-101.671 6.299-34.134-2.869-55.082-27.249-62.259-8.058-2.371-16.813.23-22.305 6.631-23.795 27.725-53.546 44.064-88.488 48.636 16.171-41.339 45.827-80.527 85.142-100.587 12.292-6.272 16.937-21.435 10.329-33.683-21.62-40.077.082-87.822 45.833-104.468 5.866-2.135 10.349-6.846 12.3-12.928 15.148-47.23 81.842-63.13 122.039-29.687 3.184 2.649 7.913 2.215 10.563-.969 2.649-3.184 2.215-7.913-.969-10.563-16.484-13.715-37.932-21.268-60.393-21.268-39.42 0-74.589 23.811-85.523 57.903-.523 1.632-1.671 2.877-3.146 3.414-54.729 19.913-79.723 77.828-53.905 125.686 2.608 4.834.837 10.76-3.945 13.2-45.803 23.371-80.461 70.873-96.699 120.731-1.172 1.166-2.22 2.476-3.121 3.917-14.121 22.587-20.563 47.113-18.116 67.123-27.391 12.753-67.247 28.874-95.192 36.931-14.526 4.189-18.844 22.671-7.69 32.896l15.335 14.057c6.879 6.306 15.632 9.356 24.418 9.069 4.14-.132 7.389-3.596 7.256-7.736-.132-4.139-3.587-7.367-7.736-7.256-5.114.159-10.014-1.661-13.803-5.134l-15.336-14.057c-2.518-2.308-1.558-6.483 1.711-7.425 27.822-8.022 67.008-23.766 94.852-36.583 3.391 8.026 8.741 14.263 15.493 18.174-16.571 10.588-36.407 22.814-54.003 32.425-3.635 1.986-4.973 6.543-2.987 10.177 1.992 3.647 6.554 4.967 10.177 2.987 22.45-12.263 48.368-28.627 66.831-40.652 1.443.029 2.887.036 5.221-.084 16.423 7.872 41.916 9.842 60.359 9.124 1.449 13.015 4.894 34.985 12.849 56.358 4.926 13.238 19.668 20.127 33.078 15.136 13.323-4.957 20.095-19.753 15.136-33.078-6.504-17.479-9.163-36.044-10.206-46.337 6.028-1.626 11.947-3.476 17.74-5.54 2.509 15.7 6.379 30.963 11.145 43.772 4.938 13.271 19.701 20.115 33.078 15.136 13.323-4.959 20.095-19.753 15.136-33.078-6.238-16.762-9.492-36.694-10.574-50.424 41.181-28.133 66.711-68.664 66.711-119.52 0-16.694-4.95-33.139-14.316-47.559-2.915-4.488-1.746-10.373 2.664-13.397 7.602-5.215 14.238-11.234 19.828-17.869 11.651-.191 27.9 1.029 41.804 3.187 17.479 2.717 29.982-16.474 20.454-31.424zm-328.711 239.386c-6.273-1.925-10.845-6.628-13.588-13.98-6.38-17.096-1.002-43.338 13.701-66.854 1.114-1.783 2.976-2.923 5.107-3.129 41.148-3.981 75.983-22.28 103.54-54.389 1.666-1.942 4.297-2.714 6.685-2.01 11.068 3.258 22.973 11.335 16.734 45.147-3.083 16.71-14.79 48.707-58.546 75.252-22.582 13.701-56.061 25.352-73.633 19.963zm114.882 82.685c-5.601 2.082-11.739-.801-13.789-6.309-7.313-19.652-10.548-39.96-11.938-52.241 7.852-.859 14.389-1.941 21.176-3.324 1.262 11.392 4.204 30.2 10.861 48.087 2.065 5.553-.756 11.72-6.31 13.787zm66.891-26.046c-5.553 2.067-11.72-.754-13.788-6.31-4.76-12.793-8.57-28.297-10.893-44.179 7.004-3.045 13.775-6.417 20.272-10.099 1.638 14.176 5.017 31.477 10.719 46.799 2.067 5.554-.753 11.722-6.31 13.789zm128.785-279.424c-11.059-1.716-23.22-2.852-33.901-3.238 5.936-10.869 9.457-22.797 10.25-35.226 11.332 7.633 21.653 18.153 29.155 29.924 2.56 4.016-.702 9.285-5.504 8.54z"/></g></svg>