<svg id="Capa_1" enable-background="new 0 0 512 512" height="512" viewBox="0 0 512 512" width="512" xmlns="http://www.w3.org/2000/svg"><g><path d="m138.993 305.875h234.014v175.979h-234.014z" fill="#f8debb"/><path d="m267.783 219.553h-23.567c-6.311 0-11.427 5.116-11.427 11.427v34.112h46.421v-34.112c0-6.311-5.116-11.427-11.427-11.427z" fill="#f8debb"/><path d="m325.146 305.875c0-31.64-30.958-57.29-69.146-57.29s-69.146 25.65-69.146 57.29v175.979h138.292z" fill="#f9efcd"/><path d="m286.137 403.679c0-15.274-13.493-27.656-30.137-27.656-16.645 0-30.138 12.382-30.138 27.656v78.175h60.275z" fill="#8c9aad"/><path d="m138.993 209.867s0-29.479 0-40.622-25.96-26.465-27.817-51.072-16.725-30.179-27.817-30.179-25.96 5.572-27.817 30.179-27.817 39.929-27.817 51.072 0 40.622 0 40.622z" fill="#a6aeba"/><path d="m75.779 88.919c-9.35 2.389-18.783 9.984-20.237 29.254-1.857 24.607-27.817 39.929-27.817 51.072s0 40.622 0 40.622h69.352c-21.446-27.32-29.523-69.495-21.298-120.948z" fill="#8c9aad"/><path d="m27.725 237.052h111.267v201.516h-111.267z" fill="#f9efcd"/><path d="m27.725 237.052h111.267v25h-111.267z" fill="#f8debb"/><path d="m142.338 198.521h-117.958c-8.182 0-14.814 6.633-14.814 14.814v8.903c0 8.182 6.632 14.814 14.814 14.814h117.958c8.182 0 14.814-6.633 14.814-14.814v-8.903c0-8.181-6.632-14.814-14.814-14.814z" fill="#f6c5a3"/><path d="m24.958 438.568h114.035v43.286h-118.263c-7.307 0-13.23-5.923-13.23-13.23v-12.597c0-9.643 7.816-17.459 17.458-17.459z" fill="#deb597"/><path d="m373.007 209.867s0-29.479 0-40.622 25.96-26.465 27.817-51.072 16.725-30.179 27.817-30.179 25.96 5.572 27.817 30.179 27.817 39.929 27.817 51.072 0 40.622 0 40.622z" fill="#a6aeba"/><path d="m421.061 88.919c-9.35 2.389-18.783 9.984-20.237 29.254-1.857 24.607-27.817 39.929-27.817 51.072s0 40.622 0 40.622h69.352c-21.447-27.32-29.523-69.495-21.298-120.948z" fill="#8c9aad"/><path d="m373.007 237.052h111.268v201.516h-111.268z" fill="#f9efcd" transform="matrix(-1 0 0 -1 857.282 675.62)"/><path d="m373.007 237.052h111.268v25h-111.268z" fill="#f8debb"/><path d="m369.662 198.521h117.958c8.182 0 14.814 6.633 14.814 14.814v8.903c0 8.182-6.632 14.814-14.814 14.814h-117.958c-8.182 0-14.814-6.633-14.814-14.814v-8.903c0-8.181 6.632-14.814 14.814-14.814z" fill="#f6c5a3"/><path d="m487.042 438.568h-114.035v43.286h118.263c7.307 0 13.23-5.923 13.23-13.23v-12.597c0-9.643-7.816-17.459-17.458-17.459z" fill="#deb597"/><path d="m83.359 324.472c4.142 0 7.5-3.357 7.5-7.5v-27.332c0-4.142-3.358-7.5-7.5-7.5s-7.5 3.358-7.5 7.5v27.332c0 4.142 3.358 7.5 7.5 7.5zm172.641-37.332c-4.142 0-7.5 3.358-7.5 7.5v23.952c0 4.143 3.358 7.5 7.5 7.5 4.143 0 7.5-3.357 7.5-7.5v-23.952c0-4.143-3.357-7.5-7.5-7.5zm235.774 144.383v-131.991c0-4.143-3.357-7.5-7.5-7.5s-7.5 3.357-7.5 7.5v61.743h-96.268v-116.722h96.268v19.264c0 4.143 3.357 7.5 7.5 7.5s7.5-3.357 7.5-7.5v-19.658c10.324-1.953 18.159-11.036 18.159-21.921v-8.902c0-10.885-7.835-19.968-18.159-21.921v-22.171c0-11.985-14.492-21.785-22.874-36.542.683-3.211-.778-6.426-3.573-8.051-.713-2.264-1.207-4.606-1.391-7.043-2.005-26.558-17.371-34.221-27.796-36.339v-24.587h11.272c4.143 0 7.5-3.357 7.5-7.5 0-4.142-3.357-7.5-7.5-7.5h-11.272v-11.536c0-4.143-3.357-7.5-7.5-7.5s-7.5 3.357-7.5 7.5v11.535h-11.271c-4.143 0-7.5 3.358-7.5 7.5 0 4.143 3.357 7.5 7.5 7.5h11.271v24.587c-10.425 2.119-25.79 9.781-27.795 36.339-.184 2.437-.678 4.779-1.391 7.043-2.792 1.623-4.257 4.837-3.573 8.051-8.313 14.636-22.875 24.577-22.875 36.542v22.171c-10.325 1.953-18.159 11.036-18.159 21.92v8.902c0 10.884 7.834 19.967 18.159 21.92v22.588h-48.468c-7.864-8.744-18.292-15.748-30.329-20.216v-15.548c0-10.437-8.49-18.927-18.927-18.927h-4.282v-18.805c0-4.143-3.357-7.5-7.5-7.5-4.142 0-7.5 3.357-7.5 7.5v18.805h-4.283c-10.437 0-18.927 8.49-18.927 18.927v15.551c-12.037 4.468-22.465 11.472-30.328 20.216h-48.469v-22.588c10.325-1.953 18.16-11.036 18.16-21.921v-8.902c0-10.885-7.835-19.968-18.16-21.921v-22.171c0-11.985-14.489-21.778-22.874-36.542.682-3.204-.773-6.422-3.573-8.05-.713-2.264-1.207-4.605-1.391-7.043-2.004-26.558-17.37-34.221-27.795-36.339v-24.588h11.272c4.142 0 7.5-3.357 7.5-7.5 0-4.142-3.358-7.5-7.5-7.5h-11.273v-11.536c0-4.143-3.358-7.5-7.5-7.5s-7.5 3.357-7.5 7.5v11.535h-11.272c-4.142 0-7.5 3.358-7.5 7.5 0 4.143 3.358 7.5 7.5 7.5h11.272v24.587c-10.425 2.119-25.791 9.781-27.795 36.339-.184 2.438-.678 4.779-1.391 7.043-2.795 1.625-4.256 4.841-3.573 8.05-8.313 14.636-22.874 24.577-22.874 36.542v22.171c-10.325 1.953-18.16 11.036-18.16 21.921v8.902c0 10.884 7.835 19.967 18.159 21.92v187.365c-11.506 2.221-20.225 12.361-20.225 24.504v12.598c0 11.431 9.3 20.73 20.73 20.73h9.71c4.142 0 7.5-3.357 7.5-7.5s-3.358-7.5-7.5-7.5h-9.71c-3.16 0-5.73-2.57-5.73-5.73v-12.598c0-5.491 4.467-9.958 9.958-9.958h106.535v28.286h-65.673c-4.142 0-7.5 3.357-7.5 7.5s3.358 7.5 7.5 7.5h425.45c11.431 0 20.73-9.3 20.73-20.73v-12.598c0-12.143-8.72-22.284-20.226-24.502zm-251.484-200.543c0-2.165 1.762-3.927 3.927-3.927h23.566c2.165 0 3.927 1.762 3.927 3.927v11.479c-10.36-1.832-21.053-1.833-31.42 0zm-177.269-112.243c1.164-15.423 8.007-23.243 20.338-23.243s19.174 7.82 20.338 23.243c.126 1.676.369 3.3.671 4.896h-42.018c.301-1.596.544-3.22.671-4.896zm-27.795 50.515c.177-3.938 14.445-17.037 21.71-30.618h52.846c7.405 13.841 21.528 26.561 21.71 30.61v21.777h-96.266zm96.267 261.815h-96.268v-54.792h96.268zm0-69.792h-96.268v-116.722h96.268zm-107.113-131.722c-4.033 0-7.315-3.281-7.315-7.314v-8.902c0-4.033 3.281-7.314 7.315-7.314h117.957c4.033 0 7.314 3.281 7.314 7.314v8.902c0 4.033-3.281 7.314-7.314 7.314zm154.974 244.8h-32.861c0-21.652 0-143.409 0-160.978h32.861zm.53-175.978h-33.391v-16.628h38.395c-2.498 5.241-4.208 10.817-5.004 16.628zm98.754 175.978h-45.275v-70.675c0-11.113 10.155-20.155 22.638-20.155 12.482 0 22.638 9.042 22.638 20.155v70.675zm39.009 0h-24.009v-70.675c0-19.385-16.884-35.155-37.638-35.155-20.753 0-37.638 15.771-37.638 35.155v70.675h-24.008v-168.478c0-27.454 27.654-49.79 61.646-49.79s61.647 22.336 61.647 49.79zm47.86 0h-32.86v-160.978h32.86zm0-175.978h-33.39c-.797-5.811-2.506-11.387-5.004-16.628h38.395v16.628zm111.267 77.9v54.792h-96.268v-54.792zm-68.471-257.538c1.164-15.423 8.007-23.243 20.338-23.243 12.332 0 19.175 7.82 20.339 23.243.126 1.676.37 3.3.671 4.896h-42.018c.3-1.596.543-3.22.67-4.896zm-27.796 50.515c.181-4.038 14.331-16.825 21.711-30.618h52.847c7.387 13.809 21.529 26.575 21.71 30.61v21.777h-96.268zm-10.845 60.301c-4.033 0-7.314-3.281-7.314-7.314v-8.902c0-4.033 3.281-7.314 7.314-7.314h117.958c4.032 0 7.314 3.281 7.314 7.314v8.902c0 4.033-3.281 7.314-7.314 7.314zm127.338 239.07c0 3.16-2.57 5.73-5.73 5.73h-110.763v-28.286h106.535c5.491 0 9.958 4.467 9.958 9.958zm-276.743-162.026c-4.142 0-7.5 3.357-7.5 7.5v15.73c0 4.143 3.358 7.5 7.5 7.5s7.5-3.357 7.5-7.5v-15.73c0-4.143-3.358-7.5-7.5-7.5zm200.884-16.957v27.332c0 4.143 3.357 7.5 7.5 7.5s7.5-3.357 7.5-7.5v-27.332c0-4.142-3.357-7.5-7.5-7.5s-7.5 3.357-7.5 7.5zm-129.399 16.957c-4.143 0-7.5 3.357-7.5 7.5v15.73c0 4.143 3.357 7.5 7.5 7.5s7.5-3.357 7.5-7.5v-15.73c0-4.143-3.357-7.5-7.5-7.5z"/></g></svg>