<svg id="Capa_1" enable-background="new 0 0 512.168 512.168" height="512" viewBox="0 0 512.168 512.168" width="512" xmlns="http://www.w3.org/2000/svg"><g><path d="m256.084 504.5c56.867 0 102.967-25.517 102.967-70.521 0-20.571-6.115-42.52-20.679-58.585-8.226-9.074-9.52-22.271-3.32-32.833 4.715-8.033 6.525-17.087 6.525-28.681 0-39.64-35.469-66.789-85.494-66.789s-85.494 27.149-85.494 66.789c0 11.593 1.81 20.648 6.525 28.681 6.2 10.562 4.906 23.759-3.32 32.833-14.563 16.065-20.679 38.015-20.679 58.585.002 45.004 46.102 70.521 102.969 70.521z" fill="#f8debb"/><path d="m322.467 489.879c-100.324-31.12-88.742-179.544-87.146-241.105-38.788 6.467-64.73 31.212-64.73 65.105 0 11.593 1.81 20.648 6.525 28.681 6.2 10.562 4.906 23.759-3.32 32.833-14.563 16.065-20.679 38.014-20.679 58.585 0 45.004 46.1 70.521 102.967 70.521 25.297.001 48.458-5.052 66.383-14.62z" fill="#f6c5a3"/><path d="m219.243 175.078h73.683v180.999h-73.683z" fill="#d79882"/><path d="m201.733 129.027c0 21.495 17.51 37.462 17.51 46.051h73.683c0-8.589 17.51-24.556 17.51-46.051v-93.026c0-15.741-12.76-28.501-28.501-28.501h-51.7c-15.741 0-28.501 12.76-28.501 28.501v93.026z" fill="#f8debb"/><path d="m237.16 7.5h-6.926c-15.741 0-28.501 12.76-28.501 28.501v93.026c0 21.495 17.51 37.462 17.51 46.051h42.788c-34.433-25.916-32.057-90.855-24.871-167.578z" fill="#f6c5a3"/><circle cx="256.084" cy="353.078" fill="#565e75" r="40.874"/><path d="m269.194 47.932v71c0 4.143 3.357 7.5 7.5 7.5s7.5-3.357 7.5-7.5v-71c0-4.142-3.357-7.5-7.5-7.5s-7.5 3.357-7.5 7.5zm74.735 322.424c-5.988-6.606-6.956-16.251-2.408-24 5.227-8.904 7.558-18.921 7.558-32.477 0-29.873-18.08-54.353-48.652-66.389v-72.37c.438-4.709 14.776-20.865 17.144-40.246h10.706c4.143 0 7.5-3.357 7.5-7.5s-3.357-7.5-7.5-7.5h-10.341v-28.942h10.341c4.143 0 7.5-3.357 7.5-7.5s-3.357-7.5-7.5-7.5h-10.341v-28.944h10.341c4.143 0 7.5-3.357 7.5-7.5s-3.357-7.5-7.5-7.5h-10.565c-.704-6.401-3.09-12.436-7.015-17.643-2.494-3.306-7.193-3.968-10.504-1.475-3.308 2.493-3.968 7.196-1.475 10.504 2.76 3.66 4.218 8.026 4.218 12.626v93.026c0 15.7-11.587 28.744-15.765 38.551h-62.174c-4.206-9.873-15.765-22.848-15.765-38.551v-93.025c0-11.58 9.421-21.001 21.001-21.001h41.88c4.143 0 7.5-3.357 7.5-7.5s-3.357-7.5-7.5-7.5h-41.88c-18.494 0-33.769 14.02-35.772 31.988h-10.57c-4.143 0-7.5 3.357-7.5 7.5s3.357 7.5 7.5 7.5h10.341v28.943h-10.341c-4.143 0-7.5 3.357-7.5 7.5s3.357 7.5 7.5 7.5h10.341v28.943h-10.341c-4.143 0-7.5 3.357-7.5 7.5s3.357 7.5 7.5 7.5h10.706c2.369 19.384 16.735 35.561 17.144 40.203v72.413c-30.573 12.036-48.652 36.516-48.652 66.389 0 13.556 2.331 23.572 7.558 32.477 4.548 7.748 3.58 17.393-2.408 23.999-14.588 16.093-22.622 38.688-22.622 63.622 0 23.002 10.695 42.594 30.929 56.657 3.408 2.37 8.08 1.516 10.438-1.878 2.364-3.401 1.523-8.074-1.878-10.439-16.02-11.136-24.489-26.469-24.489-44.341 0-21.203 6.653-40.22 18.735-53.548 10.415-11.49 12.115-28.234 4.23-41.666-3.799-6.474-5.493-14.148-5.493-24.885 0-21.95 12.124-39.762 33.652-50.062v69.952c-13.888 31.772 9.48 67.681 44.342 67.681 34.803 0 58.249-35.866 44.342-67.681v-69.952c21.529 10.3 33.652 28.112 33.652 50.062 0 10.736-1.694 18.411-5.493 24.884-7.885 13.433-6.185 30.177 4.23 41.667 12.082 13.328 18.735 32.345 18.735 53.548 0 31.369-29.52 63.022-95.467 63.022-14.64 0-28.393-1.733-40.877-5.153-3.993-1.091-8.121 1.256-9.215 5.252-1.095 3.995 1.257 8.121 5.252 9.215 64.946 17.79 155.307-4.581 155.307-72.335.002-24.933-8.032-47.528-22.62-63.621zm-117.187-187.778h58.684v35.688h-58.684zm0 50.688h58.684v34.689h-58.684zm0 49.688h58.684v31.7c-17.096-13.086-41.116-13.447-58.684 0zm29.342 103.497c-18.402 0-33.374-14.972-33.374-33.374s14.972-33.373 33.374-33.373 33.374 14.971 33.374 33.373-14.971 33.374-33.374 33.374zm35.608 53.897c4.143 0 7.5-3.357 7.5-7.5s-3.357-7.5-7.5-7.5h-71.215c-4.143 0-7.5 3.357-7.5 7.5s3.357 7.5 7.5 7.5zm-63.718-392.416v71c0 4.143 3.357 7.5 7.5 7.5s7.5-3.357 7.5-7.5v-71c0-4.142-3.357-7.5-7.5-7.5s-7.5 3.357-7.5 7.5z"/></g></svg>