<svg id="Capa_1" enable-background="new 0 0 512.022 512.022" height="512" viewBox="0 0 512.022 512.022" width="512" xmlns="http://www.w3.org/2000/svg"><g><path d="m172.011 497.034c-9.957-9.956-9.957-26.098-.001-36.054l13.237-13.238c1.097-1.097 1.725-2.613 1.725-4.161v-45.027c0-14.08 11.414-25.494 25.494-25.494s25.494 11.414 25.494 25.494v45.027c0 15.192-5.917 29.474-16.659 40.215l-13.236 13.236c-9.956 9.956-26.097 9.958-36.054.002z" fill="#404656"/><path d="m340.002 497.034c9.957-9.956 9.957-26.098.001-36.054l-13.237-13.238c-1.097-1.097-1.725-2.613-1.725-4.161v-45.027c0-14.08-11.414-25.494-25.494-25.494s-25.494 11.414-25.494 25.494v45.027c0 15.192 5.917 29.474 16.659 40.215l13.236 13.236c9.956 9.956 26.098 9.958 36.054.002z" fill="#404656"/><path d="m180.361 308.941c-28.596 28.596-86.598 74.062-119.523 59.575-28.944-12.735-10.865-81.325 34.242-126.433 28.596-28.596 74.175-47.803 96.548-25.43 22.374 22.374 17.329 63.692-11.267 92.288z" fill="#565e75"/><path d="m331.652 308.941c28.596 28.596 86.598 74.062 119.523 59.575 28.944-12.735 10.865-81.325-34.242-126.433-28.596-28.596-74.175-47.803-96.548-25.43-22.373 22.374-17.328 63.692 11.267 92.288z" fill="#565e75"/><path d="m386.172 253.288c-3.404-10.665-1.498-22.271 5.064-31.443-25.527-15.638-54.435-21.607-70.851-5.192-22.373 22.373-17.329 63.691 11.267 92.287 16.822 16.822 43.82 39.477 69.903 52.336-.295-40.559-5.457-76.883-15.383-107.988z" fill="#404656"/><path d="m120.778 221.846c6.562 9.17 8.468 20.777 5.064 31.443-9.927 31.105-15.088 67.429-15.383 107.989 26.083-12.859 53.081-35.514 69.903-52.336 28.596-28.596 33.64-69.914 11.267-92.287-16.416-16.417-45.324-10.447-70.851 5.191z" fill="#404656"/><path d="m390.521 136.383c0-71.18-60.224-128.883-134.515-128.883-74.29 0-134.515 57.703-134.515 128.883 0 26.197 7.808 48.011 21.508 65.121 13.743 17.164 18.106 39.956 11.421 60.904-8.922 27.959-13.992 62.174-13.992 102.544 0 52.665 28.453 80.621 115.577 80.621s115.577-27.956 115.577-80.621c0-40.37-5.069-74.585-13.992-102.544-6.685-20.947-2.322-43.74 11.421-60.904 13.702-17.11 21.51-38.924 21.51-65.121z" fill="#565e75"/><g><g fill="#eda1ab"><ellipse cx="176.45" cy="153.473" rx="29.355" ry="23.377"/><ellipse cx="335.563" cy="153.473" rx="29.355" ry="23.377"/></g><path d="m283.71 135.85c0-13.329-12.403-24.135-27.703-24.135s-27.703 10.806-27.703 24.135 12.403 43.902 27.703 43.902 27.703-30.573 27.703-43.902z" fill="#404656"/></g><g fill="#f9efcd"><path d="m130.488 89.969c20.165-9.705 50.111-7.242 74.616-1.107 6.526 1.634 11.947-5.012 9.106-11.11-9.961-21.382-27.026-33.693-44.76-40.016-17.202 13.87-30.723 31.791-38.962 52.233z"/><path d="m342.564 37.736c-17.734 6.323-34.799 18.635-44.76 40.017-2.841 6.098 2.581 12.744 9.106 11.11 24.505-6.135 54.451-8.599 74.616 1.107-8.24-20.443-21.761-38.364-38.962-52.234z"/><path d="m376.435 190.779c-41.629 24.499-100.079 23.521-120.428 23.521s-78.799.977-120.428-23.521c2.236 3.756 4.708 7.336 7.422 10.725 13.743 17.164 18.106 39.956 11.421 60.904-.996 3.12-1.935 6.33-2.833 9.605 29.347-14.331 65.304-21.636 104.419-21.636s75.072 7.305 104.418 21.636c-.898-3.275-1.838-6.485-2.833-9.605-6.685-20.947-2.322-43.739 11.421-60.904 2.713-3.389 5.185-6.969 7.421-10.725z"/><path d="m142.165 325.805c-1.132 12.336-1.735 25.374-1.735 39.147 0 52.665 28.453 80.621 115.577 80.621 87.123 0 115.577-27.956 115.577-80.621 0-13.772-.603-26.811-1.735-39.147-26.461-23.107-71.464-41.748-113.841-41.748s-87.382 18.641-113.843 41.748z"/></g><path d="m291.209 135.85c0-17.443-15.792-31.635-35.203-31.635s-35.203 14.192-35.203 31.635c0 15.258 13.662 51.402 35.203 51.402s35.203-36.145 35.203-51.402zm-48.188 23.393c-4.738-8.799-7.217-18.429-7.217-23.394 0-9.173 9.063-16.635 20.203-16.635s20.203 7.462 20.203 16.635c0 4.965-2.479 14.596-7.217 23.394-4.255 7.902-9.353 13.009-12.985 13.009-3.634 0-8.731-5.107-12.987-13.009zm82.935-28.273v-12c0-4.143-3.358-7.5-7.5-7.5s-7.5 3.357-7.5 7.5v12c0 4.143 3.358 7.5 7.5 7.5s7.5-3.358 7.5-7.5zm96.28 105.809c-13.582-13.581-30.524-24.79-46.868-31.242 15.023-19.068 22.653-42.324 22.653-69.154 0-75.201-63.707-136.383-142.014-136.383-63.704 0-120.007 41.144-136.919 100.053-1.143 3.982 1.158 8.135 5.14 9.278 3.979 1.142 8.135-1.157 9.278-5.14.84-2.925 1.806-5.793 2.86-8.617 15.764-6.369 39.899-6.199 66.916.563 12.647 3.166 23.231-9.736 17.726-21.553-7.774-16.688-20.302-29.751-36.58-38.389 43.322-28.265 100.034-28.264 143.184-.012-16.29 8.639-28.828 21.706-36.606 38.402-5.508 11.822 5.084 24.717 17.726 21.553 27.002-6.76 51.128-6.934 66.893-.573 10.592 28.264 10.518 62.889-4.654 89.686-33.571 18.966-77.889 21.6-114.964 21.551-36.978.05-81.181-2.464-114.964-21.551-7.874-13.909-11.931-30.01-12.048-48.064-.027-4.125-3.379-7.451-7.499-7.451-.016 0-.033 0-.05 0-4.142.027-7.478 3.406-7.451 7.549.172 26.451 7.8 49.406 22.65 68.254-16.343 6.452-33.286 17.66-46.868 31.241-34.065 34.066-55.351 83.227-49.511 114.354 2.211 11.784 8.28 20.169 17.551 24.248 23.185 10.201 53.819-4.661 75.181-18.346-.043 2.62-.069 5.257-.069 7.917 0 35.897 12.897 62.432 46.542 76.393v1.566l-12.765 12.766c-12.864 12.864-12.864 33.796.001 46.66s33.796 12.864 46.661-.002l13.235-13.235c9.888-9.887 16.174-22.532 18.152-36.195 7.594.228 15.343.219 22.502.005 1.978 13.662 8.265 26.305 18.151 36.19l13.236 13.236c10.499 10.501 23.431 9.685 23.331 9.665 8.813 0 17.098-3.432 23.329-9.663 12.894-12.893 12.898-33.765.002-46.66l-12.765-12.767v-1.543c5.103-2.12 9.752-4.529 13.952-7.237 3.481-2.245 4.483-6.887 2.239-10.368-2.244-3.48-6.885-4.482-10.368-2.239-17.271 11.137-44.21 16.55-82.357 16.55-40.828 0-68.941-6.232-85.945-19.05-15.099-11.382-22.132-28.563-22.132-54.07 0-12.277.481-24.087 1.426-35.413 27.438-22.801 69.86-37.982 106.651-37.982s79.213 15.181 106.651 37.982c.945 11.327 1.426 23.137 1.426 35.413 0 13.449-1.929 24.416-5.897 33.526-1.654 3.798.083 8.217 3.881 9.871 3.812 1.66 8.223-.097 9.871-3.881 6.79-15.588 7.346-31.111 7.077-47.434 21.329 13.666 51.976 28.555 75.181 18.346 36.225-15.941 15.99-90.653-31.961-138.604zm-214.825-155.86c.064.137.144.308-.048.541-.161.193-.278.167-.438.127-19.452-4.87-42.441-7.58-62.081-3.934 6.868-11.839 15.707-22.398 26.059-31.313 12.369 5.174 27.487 15.216 36.508 34.579zm97.677.668c-.16.04-.276.066-.437-.127-.192-.232-.112-.403-.048-.541 9.018-19.356 24.128-29.398 36.495-34.574 10.381 8.969 19.206 19.552 26.044 31.328-19.727-3.658-42.538-.972-62.054 3.914zm12.75 364.742c.536 2.522 1.789 4.879 3.626 6.716l13.237 13.237c7.031 7.033 7.032 18.414-.001 25.447-7.034 7.033-18.414 7.033-25.447 0l-13.236-13.237c-7.252-7.251-11.987-16.436-13.712-26.391 13.348-1.053 25.165-2.971 35.533-5.772zm-123.657-.021c10.379 2.806 22.198 4.73 35.53 5.787-1.724 9.957-6.46 19.144-13.714 26.397l-13.235 13.235c-7.016 7.018-18.432 7.017-25.448.001s-7.017-18.431-.001-25.447l13.237-13.236c1.842-1.841 3.098-4.206 3.631-6.737zm61.826-224.507c15.603-.52 58.236 1.361 99.437-13.208-8.118 15.402-10.508 33.189-6.592 50.243-27.082-10.461-58.816-15.959-92.845-15.959-34.034 0-65.765 5.508-92.848 15.974 3.918-17.049 1.533-34.831-6.575-50.232 32.259 11.404 66.572 13.232 99.423 13.182zm-108.73 38.327c-7.349 23.03-11.889 49.312-13.583 78.372-30.389 21.41-55.114 29.629-69.835 23.15-4.598-2.022-7.575-6.492-8.85-13.284-5.426-28.92 19.328-74.934 45.375-100.98 12.94-12.94 29.141-23.43 44.353-28.884 5.94 12.98 6.96 27.774 2.54 41.626zm108.73 16.429c-35.068 0-74.874 12.714-104.362 32.591 1.589-11.174 3.688-21.793 6.29-31.821 27.441-12.721 61.248-19.45 98.071-19.45s70.63 6.728 98.071 19.45c2.603 10.03 4.701 20.649 6.291 31.824-29.487-19.878-69.292-32.594-104.361-32.594zm200.997 71.809c-1.274 6.792-4.252 11.262-8.849 13.284-14.721 6.482-39.445-1.74-69.835-23.15-1.694-29.06-6.233-55.342-13.583-78.372-4.421-13.852-3.4-28.646 2.54-41.625 15.212 5.454 31.413 15.943 44.353 28.884 26.046 26.046 50.8 72.059 45.374 100.979zm-255.946-217.396v-12c0-4.143-3.358-7.5-7.5-7.5s-7.5 3.357-7.5 7.5v12c0 4.143 3.358 7.5 7.5 7.5s7.5-3.358 7.5-7.5z"/></g></svg>